# xmcd
#
# Track frame offsets: 
#        150
#        17909
#        36621
#        63183
#        84753
#        105238
#        118035
#        136313
#        153745
#        173555
#        201973
#        221286
#        246268
#        261578
#        279148
#        293437
#
# Disc length: 4123 seconds
#
# Revision: 1
# Processed by: cddbd v1.5.2PL0 Copyright (c) Steve Scherf et al.
# Submitted via: ExactAudioCopy v1.3
#
DISCID=dd101910
DTITLE=Various Artist - Type Akella Presents - Special Edition - CD2
DYEAR=2015
DGENRE=Blues
TTITLE0=Brad Wilson - Blues Magic
TTITLE1=Bob Margolin With Mike Sponza Band - Blues Lover
TTITLE2=Paul Black And The Flip King - MooGoo
TTITLE3=Curtis Salgado - Little Charmer
TTITLE4=Curtis Salgado - Wiggle Outta This
TTITLE5=Damon Fowler - Devil Got His Way
TTITLE6=Fast Freddy Sims and Blue Point Of View - Hot Lahiana Beach
TTITLE7=Paul Camilleri - Now That I Found You
TTITLE8=Gene Deer - I Want Out
TTITLE9=Gino Matteo - Bone In The Soup
TTITLE10=Bob Margolin With Mike Sponza Band - Rather Than Be Free
TTITLE11=Bobby Messano and NBO - In The Depths Of Love
TTITLE12=Boogie Stuff - Save Yourself
TTITLE13=Curtis Salgado - Why Don't I Care
TTITLE14=The Maynard Brothers Band - She Sold My Monkey
TTITLE15=Brad Wilson - I'm Still Breathin
EXTD=
EXTT0=
EXTT1=
EXTT2=
EXTT3=
EXTT4=
EXTT5=
EXTT6=
EXTT7=
EXTT8=
EXTT9=
EXTT10=
EXTT11=
EXTT12=
EXTT13=
EXTT14=
EXTT15=
PLAYORDER=
